<?xml version="1.0" standalone="no"?>
<!DOCTYPE svg PUBLIC "-//W3C//DTD SVG 20010904//EN"
 "http://www.w3.org/TR/2001/REC-SVG-20010904/DTD/svg10.dtd">
<svg version="1.0" xmlns="http://www.w3.org/2000/svg"
 width="177.000000pt" height="173.000000pt" viewBox="0 0 177.000000 173.000000"
 preserveAspectRatio="xMidYMid meet">

<g transform="translate(0.000000,173.000000) scale(0.100000,-0.100000)"
fill="#eb9914" stroke="none">
<path d="M350 1548 c-35 -10 -93 -48 -118 -78 -7 -8 -22 -33 -32 -55 -19 -38
-20 -67 -20 -560 0 -484 2 -523 19 -560 24 -52 59 -88 109 -114 40 -20 54 -21
563 -21 508 0 524 1 565 21 58 27 100 78 119 141 23 77 23 989 0 1066 -19 62
-62 115 -119 145 -41 22 -47 22 -546 24 -317 1 -518 -2 -540 -9z m973 -274 c7
-8 -32 -63 -82 -117 -61 -65 -79 -71 -251 -78 -153 -5 -156 -6 -230 -42 -63
-32 -84 -37 -142 -37 -37 0 -69 4 -72 8 -7 11 128 186 166 215 63 48 113 56
369 56 130 1 238 -2 242 -5z m-133 -290 c0 -4 -25 -38 -55 -75 -77 -95 -110
-110 -260 -119 -122 -7 -147 -13 -200 -49 -24 -17 -46 -21 -112 -21 -46 0 -83
3 -83 6 0 8 105 150 139 188 14 16 49 39 76 52 48 23 59 24 273 24 122 0 222
-3 222 -6z m-330 -282 c0 -20 -134 -185 -172 -212 -23 -17 -64 -37 -91 -45
-52 -15 -187 -21 -187 -7 0 4 34 52 76 107 76 101 106 127 172 151 41 15 202
19 202 6z"/>
</g>
</svg>
