<?xml version="1.0" standalone="no"?>
<!DOCTYPE svg PUBLIC "-//W3C//DTD SVG 20010904//EN"
 "http://www.w3.org/TR/2001/REC-SVG-20010904/DTD/svg10.dtd">
<svg version="1.0" xmlns="http://www.w3.org/2000/svg"
 width="1774.000000pt" height="887.000000pt" viewBox="0 0 1774.000000 887.000000"
 preserveAspectRatio="xMidYMid meet">

<g transform="translate(0.000000,887.000000) scale(0.100000,-0.100000)"
fill="#000000" stroke="none">
<path d="M14003 5620 c-107 -25 -206 -109 -260 -218 l-28 -57 0 -860 0 -860
31 -65 c40 -82 99 -142 183 -183 l66 -32 866 0 866 0 79 40 c91 46 148 108
185 202 l24 58 3 790 c3 824 0 886 -40 971 -33 72 -111 149 -186 186 l-67 33
-845 2 c-465 0 -859 -2 -877 -7z m1617 -458 c0 -19 -120 -170 -171 -216 -30
-27 -79 -61 -109 -75 -53 -25 -64 -26 -300 -31 -265 -6 -297 -12 -389 -73 -33
-22 -51 -25 -191 -32 l-154 -7 29 38 c144 193 232 298 269 323 45 31 123 65
166 74 45 8 850 7 850 -1z m-227 -464 c-34 -57 -103 -147 -142 -187 -105 -108
-174 -131 -392 -131 -166 0 -224 -14 -317 -76 l-53 -35 -139 3 -140 3 106 140
c127 168 148 191 217 233 90 54 142 60 525 61 272 1 342 -2 335 -11z m-543
-464 c0 -4 -43 -64 -95 -134 -185 -248 -264 -294 -522 -307 -124 -6 -136 -5
-130 10 7 17 198 272 239 318 78 89 169 118 371 118 75 1 137 -2 137 -5z"/>
<path d="M9117 5594 c-114 -35 -206 -121 -247 -230 -20 -56 -21 -68 -21 -873
-1 -449 2 -829 6 -846 14 -55 67 -145 112 -186 25 -22 70 -53 101 -67 l57 -27
835 0 835 0 57 27 c111 52 193 153 218 268 8 40 11 271 8 856 l-3 800 -37 76
c-45 89 -94 138 -187 182 l-66 31 -810 2 c-694 2 -817 0 -858 -13z m1593 -429
c0 -3 -31 -48 -70 -99 -76 -102 -131 -152 -212 -193 -52 -27 -56 -28 -298 -33
-240 -5 -246 -6 -303 -32 -32 -15 -70 -36 -85 -47 -23 -16 -53 -20 -176 -26
l-149 -8 58 79 c167 227 212 277 286 315 88 45 123 48 547 48 221 1 402 -1
402 -4z m-230 -461 c0 -20 -150 -201 -197 -238 -82 -65 -118 -74 -316 -82
-189 -7 -224 -16 -323 -79 l-54 -35 -135 0 c-74 0 -135 2 -135 5 0 17 216 288
263 332 56 50 133 86 212 96 48 6 685 8 685 1z m-537 -476 c-5 -7 -51 -68
-102 -135 -51 -68 -114 -141 -139 -164 -56 -50 -147 -95 -221 -109 -55 -10
-271 -14 -271 -5 0 9 210 287 244 323 34 37 88 68 151 88 56 18 351 19 338 2z"/>
<path d="M1539 4976 c-126 -45 -189 -137 -189 -278 l0 -58 -60 0 -60 0 0 -95
0 -94 58 -3 57 -3 3 -292 2 -293 100 0 100 0 0 295 0 295 90 0 90 0 0 95 0 95
-90 0 -90 0 0 49 c0 38 6 56 24 78 22 25 30 28 90 28 l66 0 0 98 0 97 -77 0
c-43 -1 -94 -7 -114 -14z"/>
<path d="M2740 4400 l0 -540 100 0 100 0 0 40 0 40 46 -35 c95 -73 228 -83
349 -27 77 36 136 97 178 182 31 62 32 69 32 190 0 116 -2 129 -28 182 -106
216 -359 294 -531 163 l-46 -35 0 190 0 190 -100 0 -100 0 0 -540z m522 34
c122 -86 123 -282 1 -363 -82 -55 -179 -50 -250 12 -96 84 -98 243 -4 332 47
43 79 55 148 52 51 -2 71 -9 105 -33z"/>
<path d="M7390 4395 l0 -535 74 0 75 0 3 258 3 257 27 47 c21 34 41 53 80 72
28 14 63 26 77 26 82 0 163 -54 181 -120 5 -19 10 -149 10 -287 l0 -253 71 0
70 0 -3 293 -3 292 -28 57 c-47 97 -134 151 -242 152 -85 1 -148 -20 -200 -66
l-45 -40 0 191 0 191 -75 0 -75 0 0 -535z"/>
<path d="M2045 4651 c-190 -46 -314 -263 -277 -484 17 -97 54 -168 124 -233
125 -115 313 -125 441 -23 l37 30 0 -41 0 -40 100 0 100 0 0 390 0 390 -100 0
-100 0 0 -46 0 -47 -44 41 c-67 62 -181 87 -281 63z m221 -208 c61 -31 97 -91
102 -167 5 -77 -9 -126 -51 -173 -41 -46 -82 -63 -154 -63 -128 1 -216 107
-200 242 10 81 60 149 129 175 45 17 127 11 174 -14z"/>
<path d="M3863 4650 c-161 -34 -247 -184 -182 -318 30 -61 85 -97 203 -133
144 -43 165 -54 182 -94 29 -70 -29 -125 -132 -125 -54 0 -144 30 -144 48 0 4
-11 20 -23 36 l-23 29 -46 -27 c-71 -42 -75 -49 -45 -95 96 -145 371 -174 501
-53 81 76 88 220 13 300 -30 33 -96 64 -192 92 -96 27 -150 53 -159 75 -33 86
38 147 151 130 34 -5 54 -16 85 -47 l40 -40 33 18 c18 10 43 25 55 34 l21 16
-23 34 c-63 93 -197 145 -315 120z"/>
<path d="M4610 4647 c-201 -47 -320 -213 -308 -429 9 -155 83 -270 216 -335
73 -37 80 -38 176 -37 144 1 244 42 309 128 l27 35 -57 35 -57 36 -36 -35
c-50 -48 -97 -65 -182 -65 -113 1 -194 50 -232 142 -31 72 -50 68 290 68 l306
0 -4 98 c-4 104 -27 167 -84 235 -87 104 -234 153 -364 124z m153 -138 c49
-13 115 -73 138 -124 36 -79 48 -75 -216 -75 -186 0 -235 3 -235 13 0 7 11 36
25 64 53 105 171 155 288 122z"/>
<path d="M5452 4645 c-73 -20 -107 -40 -163 -92 -94 -88 -135 -198 -126 -338
10 -157 83 -272 215 -337 61 -30 75 -33 157 -33 107 1 166 23 233 88 l42 41 0
-57 0 -57 75 0 75 0 -2 388 -3 387 -70 0 -70 0 -3 -53 -3 -53 -45 40 c-89 78
-204 106 -312 76z m204 -150 c45 -18 102 -72 126 -119 29 -57 35 -159 14 -224
-40 -119 -178 -194 -302 -163 -145 37 -225 189 -181 342 43 145 202 221 343
164z"/>
<path d="M6872 4649 c-210 -36 -356 -249 -321 -469 15 -93 50 -162 116 -228
79 -79 153 -107 278 -106 68 0 104 6 147 23 61 24 142 90 170 139 l18 30 -38
24 c-80 53 -78 53 -119 7 -50 -56 -102 -79 -181 -79 -102 0 -177 45 -225 135
-32 60 -31 182 3 249 77 152 273 184 392 65 27 -27 51 -49 53 -49 3 0 30 16
60 36 l56 35 -17 27 c-77 122 -237 187 -392 161z"/>
<path d="M6407 4634 c-33 -10 -63 -30 -93 -60 l-44 -46 0 56 0 56 -70 0 -70 0
0 -390 0 -390 69 0 69 0 4 243 c3 229 4 244 26 284 29 56 88 95 152 101 l50 5
0 78 c0 90 -1 91 -93 63z"/>
</g>
</svg>
