<svg xmlns="http://www.w3.org/2000/svg" viewBox="152 239 1534 342" aria-hidden="true">
  <g transform="translate(0,860) scale(0.1,-0.1)">
    <g class="logo-mark">
      <path d="M2002 6150 c-224 -59 -389 -237 -428 -462 -12 -72 -14 -258 -12 -1244 l3 -1159 22 -65 c64 -187 200 -320 382 -374 49 -14 179 -16 1246 -16 1312 0 1245 -3 1368 62 124 67 218 181 262 321 l25 78 0 1192 c0 1312 3 1239 -62 1376 -42 90 -158 205 -250 249 -131 64 -89 62 -1343 61 -1090 0 -1143 -1 -1213 -19z m2276 -656 c12 -4 22 -11 22 -16 0 -17 -153 -220 -210 -278 -68 -70 -147 -123 -225 -152 -56 -20 -84 -22 -385 -28 -372 -7 -353 -4 -555 -109 l-116 -61 -190 0 c-104 0 -189 4 -189 8 0 16 315 428 362 473 80 77 216 139 343 158 68 10 1108 14 1143 5z m-480 -674 c122 0 182 -3 182 -11 0 -19 -183 -252 -245 -312 -80 -77 -193 -133 -297 -146 -42 -6 -152 -10 -245 -10 -145 0 -178 -3 -238 -22 -84 -26 -154 -60 -216 -105 l-47 -34 -206 0 c-113 0 -206 2 -206 5 0 3 72 101 160 219 169 227 226 286 330 340 124 65 149 69 445 76 149 4 299 6 335 4 36 -2 147 -4 248 -4z m-611 -691 c15 -15 -265 -388 -346 -460 -155 -139 -309 -189 -587 -189 -100 0 -126 3 -130 14 -7 18 277 405 356 486 65 66 173 125 263 145 80 17 428 20 444 4z"/>
    </g>
    <g class="logo-text">
      <path d="M6396 5364 c-130 -32 -246 -124 -300 -238 -30 -64 -43 -115 -52 -218 l-7 -77 -91 -3 -91 -3 0 -145 0 -145 93 -3 92 -3 0 -464 0 -465 160 0 160 0 0 465 0 464 138 3 137 3 0 145 0 145 -135 5 -135 5 -3 30 c-6 47 17 130 41 153 37 35 92 52 167 52 l71 0 -3 153 -3 152 -90 2 c-51 1 -115 -5 -149 -13z"/>
      <path d="M8248 4475 c-1 -459 -2 -843 -2 -852 -1 -16 13 -18 154 -18 l155 0 3 68 3 69 55 -52 c31 -29 83 -64 122 -82 87 -40 228 -50 343 -24 197 44 354 193 426 405 32 92 43 265 23 364 -47 245 -230 446 -447 492 -182 39 -350 -1 -470 -109 l-53 -48 0 311 0 311 -155 0 -155 0 -2 -835z m786 50 c69 -33 138 -108 165 -181 50 -132 9 -304 -91 -389 -127 -108 -317 -107 -438 2 -198 178 -124 518 130 590 66 19 167 10 234 -22z"/>
      <path d="M15745 5298 c-3 -7 -4 -391 -3 -853 l3 -840 113 -3 112 -3 0 343 c0 189 5 372 10 407 27 164 137 267 300 279 98 7 170 -17 229 -76 79 -80 81 -90 81 -553 l0 -399 115 0 115 0 0 413 c0 226 -5 439 -10 472 -39 238 -264 393 -517 356 -104 -15 -205 -64 -267 -131 -26 -27 -49 -50 -51 -50 -3 0 -6 145 -7 323 l-3 322 -108 3 c-80 2 -109 -1 -112 -10z"/>
      <path d="M7135 4841 c-191 -55 -348 -211 -405 -403 -60 -200 -41 -412 53 -578 45 -81 159 -190 237 -228 103 -50 178 -65 300 -60 90 4 114 9 172 36 39 17 91 53 122 82 l55 52 3 -69 3 -68 155 0 155 0 0 610 0 610 -144 3 c-97 2 -148 -1 -157 -9 -9 -7 -14 -33 -14 -72 l0 -60 -48 45 c-62 59 -123 93 -198 112 -80 21 -213 19 -289 -3z m361 -321 c117 -57 174 -156 174 -300 0 -143 -68 -258 -188 -317 -48 -24 -69 -28 -137 -28 -135 1 -239 63 -295 178 -83 172 -26 376 129 460 102 56 213 59 317 7z"/>
      <path d="M10029 4839 c-67 -15 -144 -56 -194 -102 -136 -122 -153 -336 -37 -459 60 -65 124 -96 301 -147 80 -23 167 -51 193 -63 88 -38 116 -104 78 -182 -31 -65 -104 -100 -209 -100 -131 1 -222 46 -277 140 l-26 44 -31 -16 c-44 -23 -157 -103 -157 -113 0 -4 13 -28 29 -54 93 -145 242 -217 456 -217 165 0 296 48 377 139 58 66 80 122 86 217 6 102 -13 164 -70 229 -60 68 -120 95 -403 180 -49 15 -103 34 -118 42 -66 34 -89 136 -42 191 39 46 89 65 173 65 93 -1 172 -37 217 -100 17 -23 35 -42 40 -42 9 -1 157 88 172 103 10 10 -46 92 -90 133 -54 50 -126 88 -204 108 -61 16 -205 18 -264 4z"/>
      <path d="M11231 4830 c-268 -71 -454 -324 -454 -620 0 -312 195 -565 483 -626 114 -24 311 -15 408 20 80 28 115 47 182 100 42 33 110 111 110 127 0 7 -170 109 -182 109 -2 0 -26 -21 -53 -46 -158 -152 -435 -149 -599 6 -52 50 -100 134 -108 190 l-3 25 500 5 500 5 3 80 c11 299 -175 559 -453 630 -84 21 -241 19 -334 -5z m350 -231 c31 -15 74 -43 96 -63 45 -40 97 -132 107 -188 l7 -38 -390 0 -390 0 10 33 c28 98 78 172 152 220 91 59 120 67 242 64 95 -2 118 -6 166 -28z"/>
      <path d="M12623 4831 c-39 -11 -88 -28 -110 -39 -208 -107 -343 -337 -343 -587 0 -184 64 -342 189 -465 120 -119 246 -170 416 -170 158 0 261 40 366 141 l58 56 3 -81 3 -81 115 0 115 0 0 605 0 605 -115 0 -115 0 -5 -85 -5 -85 -23 32 c-32 45 -134 116 -207 143 -86 32 -243 37 -342 11z m331 -232 c79 -29 166 -112 208 -197 32 -64 33 -71 33 -187 0 -120 0 -122 -37 -197 -45 -91 -103 -147 -196 -191 -61 -29 -76 -32 -162 -32 -86 0 -102 3 -160 31 -115 54 -183 133 -220 252 -59 189 21 409 178 495 111 60 240 70 356 26z"/>
      <path d="M14870 4834 c-211 -45 -384 -203 -461 -421 -30 -85 -37 -256 -14 -358 19 -86 76 -204 130 -270 56 -69 161 -141 255 -176 74 -28 101 -33 210 -37 95 -3 142 0 190 12 142 36 282 129 349 234 17 27 31 53 31 58 0 6 -40 33 -90 62 l-89 52 -73 -73 c-58 -58 -86 -79 -133 -96 -132 -49 -269 -35 -383 38 -71 47 -106 88 -146 171 -29 61 -31 72 -31 180 0 110 1 118 33 182 81 165 254 256 432 229 123 -19 191 -62 275 -174 l20 -26 80 50 c44 28 86 54 94 58 24 14 -6 67 -81 142 -148 148 -378 211 -598 163z"/>
      <path d="M14195 4826 c-74 -18 -151 -64 -201 -119 -24 -27 -44 -53 -44 -58 0 -5 -4 -9 -10 -9 -6 0 -10 37 -10 90 l0 91 -112 -3 -113 -3 0 -605 0 -605 109 -3 c72 -2 112 1 116 8 4 6 5 140 2 298 -5 317 4 424 42 507 46 102 153 175 269 183 l58 4 -3 117 c-3 116 -3 116 -28 118 -14 1 -47 -4 -75 -11z"/>
    </g>
  </g>
</svg>
